# Blender 5.1.0
# www.blender.org
mtllib T1_Labor_Disciple.mtl
o T1_Labor_Disciple_Torso
v 0.000000 0.387785 -0.151722
v 0.000000 0.705972 -0.066464
v 0.097810 0.373169 -0.097175
v 0.097810 0.691356 -0.011917
v 0.097810 0.343938 0.011917
v 0.097810 0.662125 0.097175
v 0.000000 0.329322 0.066464
v 0.000000 0.647509 0.151722
v -0.097810 0.343938 0.011917
v -0.097810 0.662125 0.097175
v -0.097810 0.373169 -0.097175
v -0.097810 0.691356 -0.011917
vn 0.5000 0.2241 -0.8365
vn 1.0000 -0.0000 -0.0000
vn 0.5000 -0.2241 0.8365
vn -0.5000 -0.2241 0.8365
vn -0.0000 0.9659 0.2588
vn -1.0000 -0.0000 -0.0000
vn -0.5000 0.2241 -0.8365
vn -0.0000 -0.9659 -0.2588
vt 1.000000 0.500000
vt 1.000000 1.000000
vt 0.833333 1.000000
vt 0.833333 0.500000
vt 0.666667 1.000000
vt 0.666667 0.500000
vt 0.500000 1.000000
vt 0.500000 0.500000
vt 0.333333 1.000000
vt 0.333333 0.500000
vt 0.457846 0.370000
vt 0.250000 0.490000
vt 0.042154 0.370000
vt 0.042154 0.130000
vt 0.250000 0.010000
vt 0.457846 0.130000
vt 0.166667 1.000000
vt 0.166667 0.500000
vt -0.000000 1.000000
vt -0.000000 0.500000
vt 0.750000 0.490000
vt 0.957846 0.370000
vt 0.957846 0.130000
vt 0.750000 0.010000
vt 0.542154 0.130000
vt 0.542154 0.370000
s 0
f 1/1/1 2/2/1 4/3/1 3/4/1
f 3/4/2 4/3/2 6/5/2 5/6/2
f 5/6/3 6/5/3 8/7/3 7/8/3
f 7/8/4 8/7/4 10/9/4 9/10/4
f 4/11/5 2/12/5 12/13/5 10/14/5 8/15/5 6/16/5
f 9/10/6 10/9/6 12/17/6 11/18/6
f 11/18/7 12/17/7 2/19/7 1/20/7
f 1/21/8 3/22/8 5/23/8 7/24/8 9/25/8 11/26/8
o T1_Labor_Disciple_Robe
v 0.000000 0.400000 0.207059
v 0.146413 0.400000 0.146413
v 0.207059 0.400000 0.000000
v 0.146413 0.400000 -0.146413
v 0.000000 0.400000 -0.207059
v -0.146413 0.400000 -0.146413
v -0.207059 0.400000 0.000000
v -0.146413 0.400000 0.146413
v 0.000000 0.164706 -0.000000
vn 0.2969 -0.6308 0.7169
vn 0.7169 -0.6308 0.2969
vn 0.7169 -0.6308 -0.2969
vn 0.2969 -0.6308 -0.7169
vn -0.2969 -0.6308 -0.7169
vn -0.7169 -0.6308 -0.2969
vn -0.0000 1.0000 -0.0000
vn -0.7169 -0.6308 0.2969
vn -0.2969 -0.6308 0.7169
vt 0.250000 0.490000
vt 0.250000 0.250000
vt 0.419706 0.419706
vt 0.490000 0.250000
vt 0.419706 0.080294
vt 0.250000 0.010000
vt 0.080294 0.080294
vt 0.010000 0.250000
vt 0.750000 0.490000
vt 0.919706 0.419706
vt 0.990000 0.250000
vt 0.919706 0.080294
vt 0.750000 0.010000
vt 0.580294 0.080294
vt 0.510000 0.250000
vt 0.580294 0.419706
vt 0.080294 0.419706
s 0
f 13/27/9 21/28/9 14/29/9
f 14/29/10 21/28/10 15/30/10
f 15/30/11 21/28/11 16/31/11
f 16/31/12 21/28/12 17/32/12
f 17/32/13 21/28/13 18/33/13
f 18/33/14 21/28/14 19/34/14
f 13/35/15 14/36/15 15/37/15 16/38/15 17/39/15 18/40/15 19/41/15 20/42/15
f 19/34/16 21/28/16 20/43/16
f 20/43/17 21/28/17 13/27/17
o T1_Labor_Disciple_Head
v 0.000000 0.845915 -0.013075
v 0.000000 0.797517 -0.070753
v 0.000000 0.723367 -0.057679
v 0.000000 0.697614 0.013075
v 0.026620 0.831358 -0.037539
v 0.046108 0.800833 -0.051945
v 0.053241 0.762519 -0.052432
v 0.046108 0.726683 -0.038870
v 0.026620 0.702926 -0.014893
v 0.037647 0.835981 -0.011323
v 0.065207 0.808840 -0.006537
v 0.075294 0.771765 0.000000
v 0.065207 0.734690 0.006537
v 0.037647 0.707549 0.011323
v 0.026620 0.840603 0.014893
v 0.046108 0.816846 0.038870
v 0.053241 0.781010 0.052432
v 0.046108 0.742696 0.051945
v 0.026620 0.712171 0.037539
v 0.000000 0.842518 0.025752
v 0.000000 0.820163 0.057679
v 0.000000 0.784839 0.074150
v 0.000000 0.746013 0.070753
v 0.000000 0.714086 0.048398
v -0.026620 0.840603 0.014893
v -0.046108 0.816846 0.038870
v -0.053241 0.781010 0.052432
v -0.046108 0.742696 0.051945
v -0.026620 0.712171 0.037539
v -0.037647 0.835981 -0.011323
v -0.065207 0.808840 -0.006537
v -0.075294 0.771765 0.000000
v -0.065207 0.734690 0.006537
v -0.037647 0.707549 0.011323
v -0.026620 0.831358 -0.037539
v -0.046108 0.800833 -0.051945
v -0.053241 0.762519 -0.052432
v -0.046108 0.726683 -0.038870
v -0.026620 0.702926 -0.014893
v 0.000000 0.829443 -0.048398
v 0.000000 0.758690 -0.074150
v 0.000000 0.701011 -0.025752
vn 0.2811 -0.7861 -0.5505
vn 0.3715 0.0809 -0.9249
vn 0.1066 0.9011 -0.4202
vn 0.1066 -0.9905 -0.0867
vn 0.3715 -0.3924 -0.8415
vn 0.2811 0.5505 -0.7861
vn 0.2573 0.9273 -0.2718
vn 0.2573 -0.9643 0.0618
vn 0.8968 -0.3012 -0.3241
vn 0.6786 0.6195 -0.3947
vn 0.6786 -0.7171 -0.1590
vn 0.8968 0.1721 -0.4076
vn 0.2573 -0.9273 0.2718
vn 0.8968 -0.1721 0.4076
vn 0.6786 0.7171 0.1590
vn 0.6786 -0.6195 0.3947
vn 0.8968 0.3012 0.3241
vn 0.2573 0.9643 -0.0618
vn 0.1066 -0.9011 0.4202
vn 0.3715 -0.0809 0.9249
vn 0.2811 0.7861 0.5505
vn 0.2811 -0.5505 0.7861
vn 0.3715 0.3924 0.8415
vn 0.1066 0.9905 0.0867
vn -0.1066 -0.9011 0.4202
vn -0.3715 -0.0809 0.9249
vn -0.2811 0.7861 0.5505
vn -0.2811 -0.5505 0.7861
vn -0.3715 0.3924 0.8415
vn -0.1066 0.9905 0.0867
vn -0.8968 -0.1721 0.4076
vn -0.6786 0.7171 0.1590
vn -0.6786 -0.6195 0.3947
vn -0.8968 0.3012 0.3241
vn -0.2573 0.9643 -0.0618
vn -0.2573 -0.9273 0.2718
vn -0.6786 0.6195 -0.3947
vn -0.6786 -0.7171 -0.1590
vn -0.8968 0.1721 -0.4076
vn -0.2573 0.9273 -0.2718
vn -0.2573 -0.9643 0.0618
vn -0.8968 -0.3012 -0.3241
vn -0.2811 -0.7861 -0.5505
vn -0.3715 0.0809 -0.9249
vn -0.1066 0.9011 -0.4202
vn -0.1066 -0.9905 -0.0867
vn -0.3715 -0.3924 -0.8415
vn -0.2811 0.5505 -0.7861
vt 0.750000 0.166667
vt 0.750000 0.333333
vt 0.625000 0.333333
vt 0.625000 0.166667
vt 0.750000 0.500000
vt 0.750000 0.666667
vt 0.625000 0.666667
vt 0.625000 0.500000
vt 0.750000 0.833333
vt 0.687500 1.000000
vt 0.625000 0.833333
vt 0.687500 0.000000
vt 0.562500 1.000000
vt 0.500000 0.833333
vt 0.562500 0.000000
vt 0.500000 0.166667
vt 0.500000 0.500000
vt 0.500000 0.333333
vt 0.500000 0.666667
vt 0.437500 0.000000
vt 0.375000 0.166667
vt 0.375000 0.500000
vt 0.375000 0.333333
vt 0.375000 0.833333
vt 0.375000 0.666667
vt 0.437500 1.000000
vt 0.312500 0.000000
vt 0.250000 0.166667
vt 0.250000 0.500000
vt 0.250000 0.333333
vt 0.250000 0.833333
vt 0.250000 0.666667
vt 0.312500 1.000000
vt 0.187500 0.000000
vt 0.125000 0.166667
vt 0.125000 0.500000
vt 0.125000 0.333333
vt 0.125000 0.833333
vt 0.125000 0.666667
vt 0.187500 1.000000
vt 0.000000 0.500000
vt 0.000000 0.333333
vt 0.000000 0.833333
vt 0.000000 0.666667
vt 0.000000 0.166667
vt 0.062500 1.000000
vt 0.062500 0.000000
vt 1.000000 0.666667
vt 1.000000 0.833333
vt 0.875000 0.833333
vt 0.875000 0.666667
vt 1.000000 0.166667
vt 1.000000 0.333333
vt 0.875000 0.333333
vt 0.875000 0.166667
vt 1.000000 0.500000
vt 0.875000 0.500000
vt 0.937500 1.000000
vt 0.937500 0.000000
vt 0.812500 1.000000
vt 0.812500 0.000000
s 0
f 63/44/18 24/45/18 29/46/18 30/47/18
f 62/48/19 23/49/19 27/50/19 28/51/19
f 61/52/20 22/53/20 26/54/20
f 25/55/21 63/44/21 30/47/21
f 24/45/22 62/48/22 28/51/22 29/46/22
f 23/49/23 61/52/23 26/54/23 27/50/23
f 26/54/24 22/56/24 31/57/24
f 25/58/25 30/47/25 35/59/25
f 29/46/26 28/51/26 33/60/26 34/61/26
f 27/50/27 26/54/27 31/57/27 32/62/27
f 30/47/28 29/46/28 34/61/28 35/59/28
f 28/51/29 27/50/29 32/62/29 33/60/29
f 25/63/30 35/59/30 40/64/30
f 34/61/31 33/60/31 38/65/31 39/66/31
f 32/62/32 31/57/32 36/67/32 37/68/32
f 35/59/33 34/61/33 39/66/33 40/64/33
f 33/60/34 32/62/34 37/68/34 38/65/34
f 31/57/35 22/69/35 36/67/35
f 25/70/36 40/64/36 45/71/36
f 39/66/37 38/65/37 43/72/37 44/73/37
f 37/68/38 36/67/38 41/74/38 42/75/38
f 40/64/39 39/66/39 44/73/39 45/71/39
f 38/65/40 37/68/40 42/75/40 43/72/40
f 36/67/41 22/76/41 41/74/41
f 25/77/42 45/71/42 50/78/42
f 44/73/43 43/72/43 48/79/43 49/80/43
f 42/75/44 41/74/44 46/81/44 47/82/44
f 45/71/45 44/73/45 49/80/45 50/78/45
f 43/72/46 42/75/46 47/82/46 48/79/46
f 41/74/47 22/83/47 46/81/47
f 49/80/48 48/79/48 53/84/48 54/85/48
f 47/82/49 46/81/49 51/86/49 52/87/49
f 50/78/50 49/80/50 54/85/50 55/88/50
f 48/79/51 47/82/51 52/87/51 53/84/51
f 46/81/52 22/89/52 51/86/52
f 25/90/53 50/78/53 55/88/53
f 52/91/54 51/92/54 56/93/54 57/94/54
f 55/95/55 54/96/55 59/97/55 60/98/55
f 53/99/56 52/91/56 57/94/56 58/100/56
f 51/92/57 22/101/57 56/93/57
f 25/102/58 55/95/58 60/98/58
f 54/96/59 53/99/59 58/100/59 59/97/59
f 60/98/60 59/97/60 24/45/60 63/44/60
f 58/100/61 57/94/61 23/49/61 62/48/61
f 56/93/62 22/103/62 61/52/62
f 25/104/63 60/98/63 63/44/63
f 59/97/64 58/100/64 62/48/64 24/45/64
f 57/94/65 56/93/65 61/52/65 23/49/65
o T1_Labor_Disciple_Bun
v 0.000000 0.828235 0.000000
v 0.027242 0.849046 0.019792
v -0.010405 0.849046 0.032024
v -0.033673 0.849046 0.000000
v -0.010405 0.849046 -0.032024
v 0.027242 0.849046 -0.019792
v 0.010405 0.882719 0.032024
v -0.027242 0.882719 0.019792
v -0.027242 0.882719 -0.019792
v 0.010405 0.882719 -0.032024
v 0.033673 0.882719 0.000000
v 0.000000 0.903529 0.000000
v -0.006116 0.833858 0.018823
v 0.016012 0.833858 0.011633
v 0.009896 0.846090 0.030457
v 0.032024 0.846090 0.000000
v 0.016012 0.833858 -0.011633
v -0.019792 0.833858 0.000000
v -0.025908 0.846090 0.018823
v -0.006116 0.833858 -0.018823
v -0.025908 0.846090 -0.018823
v 0.009896 0.846090 -0.030457
v 0.035805 0.865882 0.011633
v 0.035805 0.865882 -0.011633
v 0.000000 0.865882 0.037647
v 0.022128 0.865882 0.030457
v -0.035805 0.865882 0.011633
v -0.022128 0.865882 0.030457
v -0.022128 0.865882 -0.030457
v -0.035805 0.865882 -0.011633
v 0.022128 0.865882 -0.030457
v 0.000000 0.865882 -0.037647
v 0.025908 0.885675 0.018823
v -0.009896 0.885675 0.030457
v -0.032024 0.885675 0.000000
v -0.009896 0.885675 -0.030457
v 0.025908 0.885675 -0.018823
v 0.006116 0.897907 0.018823
v 0.019792 0.897907 0.000000
v -0.016012 0.897907 0.011633
v -0.016012 0.897907 -0.011633
v 0.006116 0.897907 -0.018823
vn 0.1024 -0.9435 0.3151
vn 0.7002 -0.6617 0.2680
vn -0.2680 -0.9435 0.1947
vn -0.2680 -0.9435 -0.1947
vn 0.1024 -0.9435 -0.3151
vn 0.9050 -0.3304 0.2680
vn 0.0247 -0.3304 0.9435
vn -0.8897 -0.3304 0.3151
vn -0.5746 -0.3304 -0.7488
vn 0.5346 -0.3304 -0.7779
vn 0.8026 -0.1256 0.5831
vn -0.3066 -0.1256 0.9435
vn -0.9921 -0.1256 -0.0000
vn -0.3066 -0.1256 -0.9435
vn 0.8026 -0.1256 -0.5831
vn 0.4089 0.6617 0.6284
vn -0.4713 0.6617 0.5831
vn -0.7002 0.6617 -0.2680
vn 0.0385 0.6617 -0.7488
vn 0.7240 0.6617 -0.1947
vn 0.2680 0.9435 -0.1947
vn 0.4911 0.7947 -0.3568
vn 0.4089 0.6617 -0.6284
vn -0.1024 0.9435 -0.3151
vn -0.1876 0.7947 -0.5773
vn -0.4713 0.6617 -0.5831
vn -0.3313 0.9435 -0.0000
vn -0.6071 0.7947 -0.0000
vn -0.7002 0.6617 0.2680
vn -0.1024 0.9435 0.3151
vn -0.1876 0.7947 0.5773
vn 0.0385 0.6617 0.7488
vn 0.2680 0.9435 0.1947
vn 0.4911 0.7947 0.3568
vn 0.7240 0.6617 0.1947
vn 0.8897 0.3304 -0.3151
vn 0.7947 0.1876 -0.5773
vn 0.5746 0.3304 -0.7488
vn -0.0247 0.3304 -0.9435
vn -0.3035 0.1876 -0.9342
vn -0.5346 0.3304 -0.7779
vn -0.9050 0.3304 -0.2680
vn -0.9822 0.1876 -0.0000
vn -0.9050 0.3304 0.2680
vn -0.5346 0.3304 0.7779
vn -0.3035 0.1876 0.9342
vn -0.0247 0.3304 0.9435
vn 0.5746 0.3304 0.7488
vn 0.7947 0.1876 0.5773
vn 0.8897 0.3304 0.3151
vn 0.3066 0.1256 -0.9435
vn 0.3035 -0.1876 -0.9342
vn 0.0247 -0.3304 -0.9435
vn -0.8026 0.1256 -0.5831
vn -0.7947 -0.1876 -0.5773
vn -0.8897 -0.3304 -0.3151
vn -0.8026 0.1256 0.5831
vn -0.7947 -0.1876 0.5773
vn -0.5746 -0.3304 0.7488
vn 0.3066 0.1256 0.9435
vn 0.3035 -0.1876 0.9342
vn 0.5346 -0.3304 0.7779
vn 0.9921 0.1256 -0.0000
vn 0.9822 -0.1876 -0.0000
vn 0.9050 -0.3304 -0.2680
vn 0.4713 -0.6617 -0.5831
vn 0.1876 -0.7947 -0.5773
vn -0.0385 -0.6617 -0.7488
vn -0.4089 -0.6617 -0.6284
vn -0.4911 -0.7947 -0.3568
vn -0.7240 -0.6617 -0.1947
vn -0.7240 -0.6617 0.1947
vn -0.4911 -0.7947 0.3568
vn -0.4089 -0.6617 0.6284
vn 0.7002 -0.6617 -0.2680
vn 0.6071 -0.7947 -0.0000
vn 0.3313 -0.9435 -0.0000
vn -0.0385 -0.6617 0.7488
vn 0.1876 -0.7947 0.5773
vn 0.4713 -0.6617 0.5831
vt 0.181819 0.000000
vt 0.227273 0.078731
vt 0.136365 0.078731
vt 0.272728 0.157461
vt 0.318182 0.078731
vt 0.363637 0.157461
vt 0.909091 0.000000
vt 0.954545 0.078731
vt 0.863636 0.078731
vt 0.727273 0.000000
vt 0.772727 0.078731
vt 0.681818 0.078731
vt 0.545455 0.000000
vt 0.590909 0.078731
vt 0.500000 0.078731
vt 0.318182 0.236191
vt 0.090910 0.157461
vt 0.181819 0.157461
vt 0.136365 0.236191
vt 0.818182 0.157461
vt 0.909091 0.157461
vt 0.863636 0.236191
vt 0.636364 0.157461
vt 0.727273 0.157461
vt 0.681818 0.236191
vt 0.454546 0.157461
vt 0.545455 0.157461
vt 0.500000 0.236191
vt 0.227273 0.236191
vt 0.045455 0.236191
vt 0.772727 0.236191
vt 0.590909 0.236191
vt 0.409092 0.236191
vt 0.181819 0.314921
vt 0.272728 0.314921
vt 0.227273 0.393651
vt 0.000000 0.314921
vt 0.090910 0.314921
vt 0.045455 0.393651
vt 0.727273 0.314921
vt 0.818182 0.314921
vt 0.772727 0.393651
vt 0.545455 0.314921
vt 0.636364 0.314921
vt 0.590909 0.393651
vt 0.363637 0.314921
vt 0.454546 0.314921
vt 0.409092 0.393651
vt 0.500000 0.393651
vt 0.454546 0.472382
vt 0.681818 0.393651
vt 0.636364 0.472382
vt 0.863636 0.393651
vt 0.818182 0.472382
vt 0.909091 0.314921
vt 0.136365 0.393651
vt 0.090910 0.472382
vt 0.318182 0.393651
vt 0.272728 0.472382
vt 0.954545 0.236191
vt 1.000000 0.157461
vt 0.409092 0.078731
vt 0.363637 0.000000
s 0
f 64/105/66 77/106/66 76/107/66
f 65/108/67 77/109/67 79/110/67
f 64/111/68 76/112/68 81/113/68
f 64/114/69 81/115/69 83/116/69
f 64/117/70 83/118/70 80/119/70
f 65/108/71 79/110/71 86/120/71
f 66/121/72 78/122/72 88/123/72
f 67/124/73 82/125/73 90/126/73
f 68/127/74 84/128/74 92/129/74
f 69/130/75 85/131/75 94/132/75
f 65/108/76 86/120/76 89/133/76
f 66/121/77 88/123/77 91/134/77
f 67/124/78 90/126/78 93/135/78
f 68/127/79 92/129/79 95/136/79
f 69/130/80 94/132/80 87/137/80
f 70/138/81 96/139/81 101/140/81
f 71/141/82 97/142/82 103/143/82
f 72/144/83 98/145/83 104/146/83
f 73/147/84 99/148/84 105/149/84
f 74/150/85 100/151/85 102/152/85
f 102/152/86 105/153/86 75/154/86
f 102/152/87 100/151/87 105/153/87
f 100/151/88 73/147/88 105/153/88
f 105/149/89 104/155/89 75/156/89
f 105/149/90 99/148/90 104/155/90
f 99/148/91 72/144/91 104/155/91
f 104/146/92 103/157/92 75/158/92
f 104/146/93 98/145/93 103/157/93
f 98/145/94 71/159/94 103/157/94
f 103/143/95 101/160/95 75/161/95
f 103/143/96 97/142/96 101/160/96
f 97/142/97 70/138/97 101/160/97
f 101/140/98 102/162/98 75/163/98
f 101/140/99 96/139/99 102/162/99
f 96/139/100 74/150/100 102/162/100
f 87/137/101 100/151/101 74/150/101
f 87/137/102 94/132/102 100/151/102
f 94/132/103 73/147/103 100/151/103
f 95/136/104 99/148/104 73/147/104
f 95/136/105 92/129/105 99/148/105
f 92/129/106 72/144/106 99/148/106
f 93/135/107 98/145/107 72/144/107
f 93/135/108 90/126/108 98/145/108
f 90/126/109 71/159/109 98/145/109
f 91/134/110 97/142/110 71/141/110
f 91/134/111 88/123/111 97/142/111
f 88/123/112 70/138/112 97/142/112
f 89/133/113 96/139/113 70/138/113
f 89/133/114 86/120/114 96/139/114
f 86/120/115 74/150/115 96/139/115
f 94/132/116 95/136/116 73/147/116
f 94/132/117 85/131/117 95/136/117
f 85/131/118 68/127/118 95/136/118
f 92/129/119 93/135/119 72/144/119
f 92/129/120 84/128/120 93/135/120
f 84/128/121 67/124/121 93/135/121
f 90/126/122 91/164/122 71/159/122
f 90/126/123 82/125/123 91/164/123
f 82/125/124 66/165/124 91/164/124
f 88/123/125 89/133/125 70/138/125
f 88/123/126 78/122/126 89/133/126
f 78/122/127 65/108/127 89/133/127
f 86/120/128 87/137/128 74/150/128
f 86/120/129 79/110/129 87/137/129
f 79/110/130 69/130/130 87/137/130
f 80/119/131 85/131/131 69/130/131
f 80/119/132 83/118/132 85/131/132
f 83/118/133 68/127/133 85/131/133
f 83/116/134 84/128/134 68/127/134
f 83/116/135 81/115/135 84/128/135
f 81/115/136 67/124/136 84/128/136
f 81/113/137 82/125/137 67/124/137
f 81/113/138 76/112/138 82/125/138
f 76/112/139 66/165/139 82/125/139
f 79/110/140 80/166/140 69/130/140
f 79/110/141 77/109/141 80/166/141
f 77/109/142 64/167/142 80/166/142
f 76/107/143 78/122/143 66/121/143
f 76/107/144 77/106/144 78/122/144
f 77/106/145 65/108/145 78/122/145
o T1_Labor_Disciple_Arm_-0.1411764705882353
v -0.148484 0.400000 -0.027273
v -0.148484 0.635294 -0.027273
v -0.121211 0.400000 -0.019965
v -0.121211 0.635294 -0.019965
v -0.113903 0.400000 0.007308
v -0.113903 0.635294 0.007308
v -0.133869 0.400000 0.027273
v -0.133869 0.635294 0.027273
v -0.161142 0.400000 0.019965
v -0.161142 0.635294 0.019965
v -0.168450 0.400000 -0.007308
v -0.168450 0.635294 -0.007308
vn 0.2588 -0.0000 -0.9659
vn 0.9659 -0.0000 -0.2588
vn 0.7071 -0.0000 0.7071
vn -0.2588 -0.0000 0.9659
vn -0.0000 1.0000 -0.0000
vn -0.9659 -0.0000 0.2588
vn -0.7071 -0.0000 -0.7071
vn -0.0000 -1.0000 -0.0000
vt 1.000000 0.500000
vt 1.000000 1.000000
vt 0.833333 1.000000
vt 0.833333 0.500000
vt 0.666667 1.000000
vt 0.666667 0.500000
vt 0.500000 1.000000
vt 0.500000 0.500000
vt 0.333333 1.000000
vt 0.333333 0.500000
vt 0.457846 0.370000
vt 0.250000 0.490000
vt 0.042154 0.370000
vt 0.042154 0.130000
vt 0.250000 0.010000
vt 0.457846 0.130000
vt 0.166667 1.000000
vt 0.166667 0.500000
vt -0.000000 1.000000
vt -0.000000 0.500000
vt 0.750000 0.490000
vt 0.957846 0.370000
vt 0.957846 0.130000
vt 0.750000 0.010000
vt 0.542154 0.130000
vt 0.542154 0.370000
s 0
f 106/168/146 107/169/146 109/170/146 108/171/146
f 108/171/147 109/170/147 111/172/147 110/173/147
f 110/173/148 111/172/148 113/174/148 112/175/148
f 112/175/149 113/174/149 115/176/149 114/177/149
f 109/178/150 107/179/150 117/180/150 115/181/150 113/182/150 111/183/150
f 114/177/151 115/176/151 117/184/151 116/185/151
f 116/185/152 117/184/152 107/186/152 106/187/152
f 106/188/153 108/189/153 110/190/153 112/191/153 114/192/153 116/193/153
o T1_Labor_Disciple_Arm_0.1411764705882353
v 0.148484 0.400000 -0.027273
v 0.148484 0.635294 -0.027273
v 0.168450 0.400000 -0.007308
v 0.168450 0.635294 -0.007308
v 0.161142 0.400000 0.019965
v 0.161142 0.635294 0.019965
v 0.133869 0.400000 0.027273
v 0.133869 0.635294 0.027273
v 0.113903 0.400000 0.007308
v 0.113903 0.635294 0.007308
v 0.121211 0.400000 -0.019965
v 0.121211 0.635294 -0.019965
vn 0.7071 -0.0000 -0.7071
vn 0.9659 -0.0000 0.2588
vn 0.2588 -0.0000 0.9659
vn -0.7071 -0.0000 0.7071
vn -0.0000 1.0000 -0.0000
vn -0.9659 -0.0000 -0.2588
vn -0.2588 -0.0000 -0.9659
vn -0.0000 -1.0000 -0.0000
vt 1.000000 0.500000
vt 1.000000 1.000000
vt 0.833333 1.000000
vt 0.833333 0.500000
vt 0.666667 1.000000
vt 0.666667 0.500000
vt 0.500000 1.000000
vt 0.500000 0.500000
vt 0.333333 1.000000
vt 0.333333 0.500000
vt 0.457846 0.370000
vt 0.250000 0.490000
vt 0.042154 0.370000
vt 0.042154 0.130000
vt 0.250000 0.010000
vt 0.457846 0.130000
vt 0.166667 1.000000
vt 0.166667 0.500000
vt -0.000000 1.000000
vt -0.000000 0.500000
vt 0.750000 0.490000
vt 0.957846 0.370000
vt 0.957846 0.130000
vt 0.750000 0.010000
vt 0.542154 0.130000
vt 0.542154 0.370000
s 0
f 118/194/154 119/195/154 121/196/154 120/197/154
f 120/197/155 121/196/155 123/198/155 122/199/155
f 122/199/156 123/198/156 125/200/156 124/201/156
f 124/201/157 125/200/157 127/202/157 126/203/157
f 121/204/158 119/205/158 129/206/158 127/207/158 125/208/158 123/209/158
f 126/203/159 127/202/159 129/210/159 128/211/159
f 128/211/160 129/210/160 119/212/160 118/213/160
f 118/214/161 120/215/161 122/216/161 124/217/161 126/218/161 128/219/161
o T1_Labor_Disciple_Belt
v 0.136471 0.395294 0.000000
v 0.115294 0.395294 0.012226
v 0.115294 0.395294 -0.012226
v 0.096499 0.491793 0.000000
v 0.081525 0.476819 0.012226
v 0.081525 0.476819 -0.012226
v 0.000000 0.531765 0.000000
v 0.000000 0.510588 0.012226
v 0.000000 0.510588 -0.012226
v -0.096499 0.491793 0.000000
v -0.081525 0.476819 0.012226
v -0.081525 0.476819 -0.012226
v -0.136471 0.395294 0.000000
v -0.115294 0.395294 0.012226
v -0.115294 0.395294 -0.012226
v -0.096499 0.298795 -0.000000
v -0.081525 0.313769 0.012226
v -0.081525 0.313769 -0.012226
v 0.000000 0.258824 -0.000000
v 0.000000 0.280000 0.012226
v 0.000000 0.280000 -0.012226
v 0.096499 0.298795 -0.000000
v 0.081525 0.313769 0.012226
v 0.081525 0.313769 -0.012226
vn 0.4896 0.2028 0.8480
vn -0.9239 -0.3827 -0.0000
vn 0.4896 0.2028 -0.8480
vn 0.2028 0.4896 0.8480
vn -0.3827 -0.9239 -0.0000
vn 0.2028 0.4896 -0.8480
vn -0.2028 0.4896 0.8480
vn 0.3827 -0.9239 -0.0000
vn -0.2028 0.4896 -0.8480
vn -0.4896 0.2028 0.8480
vn 0.9239 -0.3827 -0.0000
vn -0.4896 0.2028 -0.8480
vn -0.4896 -0.2028 0.8480
vn 0.9239 0.3827 -0.0000
vn -0.4896 -0.2028 -0.8480
vn -0.2028 -0.4896 0.8480
vn 0.3827 0.9239 -0.0000
vn -0.2028 -0.4896 -0.8480
vn 0.2028 -0.4896 0.8480
vn -0.3827 0.9239 -0.0000
vn 0.2028 -0.4896 -0.8480
vn 0.4896 -0.2028 0.8480
vn -0.9239 0.3827 -0.0000
vn 0.4896 -0.2028 -0.8480
vt 0.500000 0.666667
vt 0.625000 0.666667
vt 0.625000 1.000000
vt 0.500000 1.000000
vt 0.500000 0.000000
vt 0.625000 0.000000
vt 0.625000 0.333333
vt 0.500000 0.333333
vt 0.750000 0.666667
vt 0.750000 1.000000
vt 0.750000 0.000000
vt 0.750000 0.333333
vt 0.875000 0.666667
vt 0.875000 1.000000
vt 0.875000 0.000000
vt 0.875000 0.333333
vt 1.000000 0.666667
vt 1.000000 1.000000
vt 1.000000 0.000000
vt 1.000000 0.333333
vt 0.000000 0.666667
vt 0.125000 0.666667
vt 0.125000 1.000000
vt 0.000000 1.000000
vt 0.000000 0.000000
vt 0.125000 0.000000
vt 0.125000 0.333333
vt 0.000000 0.333333
vt 0.250000 0.666667
vt 0.250000 1.000000
vt 0.250000 0.000000
vt 0.250000 0.333333
vt 0.375000 0.666667
vt 0.375000 1.000000
vt 0.375000 0.000000
vt 0.375000 0.333333
s 0
f 130/220/162 133/221/162 134/222/162 131/223/162
f 131/224/163 134/225/163 135/226/163 132/227/163
f 132/227/164 135/226/164 133/221/164 130/220/164
f 133/221/165 136/228/165 137/229/165 134/222/165
f 134/225/166 137/230/166 138/231/166 135/226/166
f 135/226/167 138/231/167 136/228/167 133/221/167
f 136/228/168 139/232/168 140/233/168 137/229/168
f 137/230/169 140/234/169 141/235/169 138/231/169
f 138/231/170 141/235/170 139/232/170 136/228/170
f 139/232/171 142/236/171 143/237/171 140/233/171
f 140/234/172 143/238/172 144/239/172 141/235/172
f 141/235/173 144/239/173 142/236/173 139/232/173
f 142/240/174 145/241/174 146/242/174 143/243/174
f 143/244/175 146/245/175 147/246/175 144/247/175
f 144/247/176 147/246/176 145/241/176 142/240/176
f 145/241/177 148/248/177 149/249/177 146/242/177
f 146/245/178 149/250/178 150/251/178 147/246/178
f 147/246/179 150/251/179 148/248/179 145/241/179
f 148/248/180 151/252/180 152/253/180 149/249/180
f 149/250/181 152/254/181 153/255/181 150/251/181
f 150/251/182 153/255/182 151/252/182 148/248/182
f 151/252/183 130/220/183 131/223/183 152/253/183
f 152/254/184 131/224/184 132/227/184 153/255/184
f 153/255/185 132/227/185 130/220/185 151/252/185
o T1_Labor_Disciple_Foot_-0.04705882352941177
v -0.075294 0.019765 0.023529
v -0.075294 0.036706 0.023529
v -0.075294 0.019765 -0.061176
v -0.075294 0.036706 -0.061176
v -0.018824 0.019765 0.023529
v -0.018824 0.036706 0.023529
v -0.018824 0.019765 -0.061176
v -0.018824 0.036706 -0.061176
vn -1.0000 -0.0000 -0.0000
vn -0.0000 -0.0000 -1.0000
vn 1.0000 -0.0000 -0.0000
vn -0.0000 -0.0000 1.0000
vn -0.0000 -1.0000 -0.0000
vn -0.0000 1.0000 -0.0000
vt 0.375000 0.000000
vt 0.625000 0.000000
vt 0.625000 0.250000
vt 0.375000 0.250000
vt 0.625000 0.500000
vt 0.375000 0.500000
vt 0.625000 0.750000
vt 0.375000 0.750000
vt 0.625000 1.000000
vt 0.375000 1.000000
vt 0.125000 0.500000
vt 0.125000 0.750000
vt 0.875000 0.500000
vt 0.875000 0.750000
s 0
f 154/256/186 155/257/186 157/258/186 156/259/186
f 156/259/187 157/258/187 161/260/187 160/261/187
f 160/261/188 161/260/188 159/262/188 158/263/188
f 158/263/189 159/262/189 155/264/189 154/265/189
f 156/266/190 160/261/190 158/263/190 154/267/190
f 161/260/191 157/268/191 155/269/191 159/262/191
o T1_Labor_Disciple_Foot_0.04705882352941177
v 0.018824 0.019765 0.023529
v 0.018824 0.036706 0.023529
v 0.018824 0.019765 -0.061176
v 0.018824 0.036706 -0.061176
v 0.075294 0.019765 0.023529
v 0.075294 0.036706 0.023529
v 0.075294 0.019765 -0.061176
v 0.075294 0.036706 -0.061176
vn -1.0000 -0.0000 -0.0000
vn -0.0000 -0.0000 -1.0000
vn 1.0000 -0.0000 -0.0000
vn -0.0000 -0.0000 1.0000
vn -0.0000 -1.0000 -0.0000
vn -0.0000 1.0000 -0.0000
vt 0.375000 0.000000
vt 0.625000 0.000000
vt 0.625000 0.250000
vt 0.375000 0.250000
vt 0.625000 0.500000
vt 0.375000 0.500000
vt 0.625000 0.750000
vt 0.375000 0.750000
vt 0.625000 1.000000
vt 0.375000 1.000000
vt 0.125000 0.500000
vt 0.125000 0.750000
vt 0.875000 0.500000
vt 0.875000 0.750000
s 0
f 162/270/192 163/271/192 165/272/192 164/273/192
f 164/273/193 165/272/193 169/274/193 168/275/193
f 168/275/194 169/274/194 167/276/194 166/277/194
f 166/277/195 167/276/195 163/278/195 162/279/195
f 164/280/196 168/275/196 166/277/196 162/281/196
f 169/274/197 165/282/197 163/283/197 167/276/197
