# Blender 5.1.0
# www.blender.org
mtllib Lake_LOD2.mtl
o Hex_Lake
v 0.000000 0.000000 0.000000
v 0.000000 0.000000 0.000000
v 1.000000 0.000000 0.000000
v 1.000000 0.200000 0.000000
v 0.500000 0.000000 -0.866025
v 0.500000 0.200000 -0.866025
v -0.500000 0.000000 -0.866025
v -0.500000 0.200000 -0.866025
v -1.000000 0.000000 -0.000000
v -1.000000 0.200000 -0.000000
v -0.500000 0.000000 0.866025
v -0.500000 0.200000 0.866025
v 0.500000 0.000000 0.866025
v 0.500000 0.200000 0.866025
vn -0.0000 -0.0000 -1.0000
vn 0.1949 -0.9744 0.1125
vn -0.8660 -0.0000 -0.5000
vn 0.1949 -0.9744 -0.1125
vn -0.8660 -0.0000 0.5000
vn -0.0000 0.9744 0.2250
vn -0.0000 -0.0000 1.0000
vn -0.1949 0.9744 -0.1125
vn 0.8660 -0.0000 0.5000
vn -0.1949 0.9744 0.1125
vn 0.8660 -0.0000 -0.5000
vn -0.0000 -0.9744 -0.2250
vn -0.5000 -0.0000 -0.8660
vn -1.0000 -0.0000 -0.0000
s 0
f 1//1 4//1 3//1
f 1//2 5//2 4//2
f 1//3 6//3 5//3
f 1//4 7//4 6//4
f 1//5 8//5 7//5
f 1//6 3//6 8//6
f 2//7 3//7 4//7
f 2//8 4//8 5//8
f 2//9 5//9 6//9
f 2//10 6//10 7//10
f 2//11 7//11 8//11
f 2//12 8//12 3//12
f 3//7 4//7 10//7 9//7
f 4//13 5//13 11//13 10//13
f 5//9 6//9 12//9 11//9
f 6//14 7//14 13//14 12//14
f 7//11 8//11 14//11 13//11
f 8//3 3//3 9//3 14//3
